<?xml version="1.0" standalone="no"?>
<!DOCTYPE svg PUBLIC "-//W3C//DTD SVG 20010904//EN"
 "http://www.w3.org/TR/2001/REC-SVG-20010904/DTD/svg10.dtd">
<svg version="1.0" xmlns="http://www.w3.org/2000/svg"
 width="700.000000pt" height="700.000000pt" viewBox="0 0 700.000000 700.000000"
 preserveAspectRatio="xMidYMid meet">
<metadata>
Created by potrace 1.14, written by Peter Selinger 2001-2017
</metadata>
<g transform="translate(0.000000,700.000000) scale(0.100000,-0.100000)"
fill="#000000" stroke="none">
<path d="M749 6726 c-10 -17 -19 -34 -19 -38 0 -4 -13 -35 -29 -70 -15 -35
-46 -104 -67 -155 -21 -51 -45 -95 -52 -97 -12 -5 -150 -18 -217 -20 -27 -1
-31 -5 -41 -46 -12 -51 -2 -121 21 -157 16 -24 84 -62 150 -83 115 -37 174
-91 208 -190 15 -44 19 -65 32 -167 6 -49 27 -75 41 -51 4 6 27 8 64 4 38 -5
61 -3 65 4 9 14 13 44 19 151 3 48 10 97 15 110 7 20 167 131 278 194 115 65
113 63 113 116 0 87 -31 112 -155 123 -173 16 -235 79 -251 257 -3 36 -7 74
-9 85 -2 10 -4 28 -4 39 -1 19 -8 21 -72 21 -69 1 -72 0 -90 -30z"/>
<path d="M5288 6555 c-2 -2 -43 -5 -93 -8 -106 -6 -144 -16 -227 -62 -35 -18
-83 -38 -108 -45 -37 -9 -61 -28 -136 -105 l-90 -94 -90 4 c-202 10 -276 22
-354 59 -63 30 -70 31 -240 36 -216 6 -864 4 -945 -4 -70 -6 -86 -11 -219 -60
-63 -24 -120 -38 -158 -40 -54 -3 -61 -6 -74 -32 -21 -41 -25 -43 -75 -50
-112 -15 -317 -113 -472 -226 -61 -44 -154 -103 -207 -131 -110 -58 -163 -92
-199 -127 -20 -20 -172 -198 -271 -316 -53 -64 -122 -157 -131 -178 -6 -13
-42 -56 -81 -95 -70 -72 -94 -113 -102 -173 -2 -19 -23 -61 -45 -93 -23 -33
-48 -82 -56 -110 -12 -39 -21 -53 -45 -63 -33 -15 -45 -46 -55 -144 -6 -50
-10 -59 -33 -70 -37 -18 -51 -53 -57 -140 -3 -40 -7 -82 -9 -93 -19 -90 -39
-162 -59 -216 -35 -94 -39 -128 -45 -399 -10 -540 -11 -530 68 -850 22 -91 47
-196 55 -233 8 -37 30 -101 50 -141 20 -41 39 -91 42 -113 3 -21 14 -46 25
-56 29 -29 67 -94 100 -171 17 -39 41 -95 54 -124 13 -29 24 -57 24 -62 0 -6
9 -19 19 -29 11 -11 76 -91 145 -178 150 -190 272 -313 511 -513 146 -122 198
-159 275 -197 52 -25 115 -60 140 -78 47 -35 106 -61 152 -69 39 -6 46 -13 62
-51 15 -36 23 -39 108 -49 49 -6 104 -24 228 -76 49 -20 99 -33 143 -36 54 -5
78 -12 111 -35 83 -56 118 -59 545 -54 212 3 465 7 561 10 204 4 209 3 256
-83 42 -79 106 -122 181 -122 30 0 84 -4 121 -10 170 -25 272 -16 352 32 71
41 200 175 227 235 22 48 24 65 25 215 1 186 4 197 75 255 26 21 75 61 108 88
33 28 106 81 163 119 122 83 157 114 202 183 19 29 45 57 57 64 25 14 63 67
83 119 17 45 51 92 114 158 59 61 101 130 111 180 4 22 24 55 51 85 24 27 44
58 44 69 0 24 24 75 75 156 30 49 38 74 40 114 1 40 6 53 21 59 35 13 55 46
59 96 18 231 28 277 74 348 l26 40 3 557 2 556 -23 19 c-56 45 -69 75 -72 175
-3 92 -11 166 -21 200 -3 9 -20 26 -39 37 -23 13 -35 28 -36 43 0 13 -2 32 -4
43 -2 11 -6 37 -9 57 -7 43 -16 60 -118 224 -41 65 -96 158 -122 207 -26 48
-63 106 -83 129 -90 109 -103 202 -41 297 58 87 56 79 57 339 1 141 -2 250 -8
261 -6 10 -23 31 -38 48 -15 16 -36 52 -46 79 -26 73 -52 110 -94 137 -22 14
-61 48 -88 77 -57 59 -102 85 -163 93 -29 3 -49 13 -62 30 -27 34 -95 65 -152
70 -26 3 -48 3 -50 2z"/>
<path d="M6502 5650 c2 -72 7 -95 21 -107 16 -15 22 -11 93 59 65 66 74 79 65
96 -7 14 -26 21 -63 26 -29 4 -68 9 -86 12 l-34 5 4 -91z"/>
<path d="M6131 970 c-75 -30 -111 -54 -111 -75 0 -29 115 -105 160 -105 16 0
20 7 21 38 0 20 2 67 3 105 2 37 3 67 2 66 -1 0 -34 -13 -75 -29z"/>
<path d="M942 541 c-5 -3 -9 -43 -8 -88 l0 -83 66 -1 c36 -1 76 0 90 1 24 2
43 18 35 30 -2 3 -6 34 -9 69 -3 36 -8 67 -11 70 -8 7 -153 9 -163 2z"/>
</g>
</svg>
