<svg width="700" height="700" xmlns="http://www.w3.org/2000/svg" xml:space="preserve" version="1.1">

 <g>
  <title>Layer 1</title>
  <g stroke="null" id="svg_14">
   <path stroke="null" id="svg_1" d="m464.76839,75.31194c7.56033,-9.01219 12.85432,-18.28997 24.77025,-20.30842c3.77131,-0.6374 7.01145,-4.00148 10.76505,-5.45335c4.72742,-1.82369 9.72042,-4.19625 14.58948,-4.16083c12.30545,0.05312 26.02735,-4.88677 35.58842,8.12691c0.88528,1.20399 3.7536,1.15087 5.73664,1.29251c11.49099,0.84987 15.56329,12.50021 23.63708,16.64334c10.83588,5.55958 7.7905,17.98897 16.30693,23.60167c1.78827,1.16857 2.65585,4.83365 2.69126,7.38327c0.24788,14.18225 0.3187,28.38221 -0.03541,42.56445c-0.08853,3.34637 -1.16857,7.41868 -3.27555,9.86206c-9.31319,10.78276 -8.25085,21.56552 1.50498,32.48992c5.94911,6.65734 9.29548,15.61641 14.0406,23.40691c5.54188,9.11843 11.47328,18.02438 16.89122,27.21363c1.32793,2.24862 1.32793,5.25859 2.01845,7.89673c1.27481,4.90447 -1.52269,11.5441 7.08227,13.42091c1.75286,0.37182 2.1778,7.71968 2.88603,11.89822c1.68204,9.79124 -3.34637,21.44158 8.53414,28.45303c1.50498,0.88528 1.31022,5.27629 1.31022,8.03838c0.08853,34.08343 0.301,68.14916 -0.21247,102.2326c-0.07082,4.23166 -4.76283,8.19773 -6.12617,12.64186c-1.71745,5.63041 -2.1778,11.63263 -3.24014,17.47551c-1.39875,7.71968 2.99226,17.67027 -8.30396,21.60093c-0.3187,0.10623 -0.77905,0.69052 -0.70823,0.9207c3.36408,13.01367 -10.19847,20.04283 -11.24311,31.65776c-0.23017,2.65585 -3.38178,5.08153 -5.3117,7.54262c-1.11546,1.43416 -3.45261,2.62044 -3.55884,4.0369c-0.9384,13.13761 -10.85358,19.98971 -18.52014,28.82485c-5.22318,6.01993 -4.9753,15.63412 -13.49173,20.71565c-5.02841,2.99226 -6.97604,10.76505 -11.75657,14.60719c-10.64111,8.55184 -23.08821,15.01442 -33.0565,24.22137c-6.69275,6.17928 -18.14832,10.57029 -14.97901,24.0089c1.2571,5.32941 -0.88528,11.34934 -0.33641,16.94434c1.41645,14.43013 -8.37479,20.99894 -17.26304,29.97572c-18.02438,18.20144 -38.66921,7.02915 -57.9861,7.71968c-5.22318,0.19476 -13.63337,-6.95833 -15.51018,-12.44709c-3.62966,-10.65882 -11.36705,-7.93214 -17.72339,-7.91444c-27.95727,0.08853 -55.91454,1.43416 -83.87181,1.31022c-12.44709,-0.05312 -25.51388,1.94762 -36.72158,-7.4895c-3.34637,-2.8152 -10.39323,-0.77905 -15.35082,-2.28403c-6.76357,-2.07156 -13.0845,-5.54188 -19.70642,-8.14461c-2.90373,-1.13316 -6.07305,-1.61122 -9.13613,-2.31944c-5.02841,-1.16857 -12.09298,1.36334 -12.88974,-7.38327c-0.07082,-0.79676 -1.5581,-1.91221 -2.54962,-2.10698c-7.20621,-1.46957 -13.15532,-2.53191 -19.72413,-8.69349c-4.65659,-4.3733 -15.47476,-6.28552 -22.32686,-11.95133c-11.66804,-9.61418 -23.60167,-18.92737 -34.93331,-28.93108c-8.05608,-7.09998 -15.36853,-15.06753 -22.84033,-22.80492c-2.62044,-2.70897 -4.70971,-5.94911 -7.04686,-8.92366c-5.64811,-7.20621 -11.29622,-14.39472 -16.97975,-21.56552c-0.46035,-0.58429 -1.71745,-0.69052 -1.98304,-1.29251c-4.19625,-9.72042 -8.14461,-19.54707 -12.50021,-29.17896c-1.41645,-3.13391 -3.7536,-5.86058 -5.84287,-8.65808c-0.88528,-1.18628 -3.16932,-2.10698 -3.13391,-3.06308c0.46035,-9.61418 -7.31245,-16.8204 -8.67578,-24.59319c-5.11694,-29.19667 -17.56403,-57.22476 -13.52714,-88.08576c2.14239,-16.37775 0.01771,-33.26897 1.15087,-49.84149c0.51346,-7.52491 4.46183,-14.76654 6.5511,-22.22063c1.50498,-5.40023 2.53191,-10.94211 3.7359,-16.43087c1.64663,-7.56033 -2.90373,-17.38698 8.16232,-21.61864c1.00922,-0.38952 0.9384,-3.71819 1.27481,-5.68352c0.97381,-6.01993 -0.97381,-13.19073 7.84362,-15.81117c1.66433,-0.49576 1.5581,-5.84287 2.92144,-8.62267c1.69975,-3.4349 4.0546,-6.5511 6.16158,-9.79124c1.00922,-1.5581 2.97455,-3.09849 2.95685,-4.63889c-0.07082,-12.37627 9.3663,-18.3962 16.66104,-25.93882c1.54039,-1.59351 1.73516,-4.39101 3.13391,-6.17928c5.9137,-7.63115 11.96904,-15.13836 18.0775,-22.59245c4.69201,-5.73664 9.38401,-11.50869 14.35931,-16.99745c3.80672,-4.21395 7.56033,-8.79972 12.23462,-11.86281c7.1708,-4.69201 15.38624,-7.77279 22.66327,-12.35856c8.88825,-5.6127 16.8381,-12.80121 25.95653,-17.97127c8.88825,-5.02841 18.57326,-8.74661 28.20515,-12.25233c4.90447,-1.78827 11.95133,0.88528 12.99597,-7.50721c0.07082,-0.58429 1.11546,-1.59351 1.57581,-1.52269c15.43935,2.23092 27.93956,-9.41942 41.96246,-10.02141c36.43829,-1.59351 73.00052,-0.84987 109.50963,-0.21247c5.98452,0.10623 11.70345,5.40023 17.86503,6.58651c9.38401,1.78827 19.03361,2.1955 28.59467,2.95685c3.18702,0.15935 6.44487,-0.3187 9.47254,-0.44264zm93.46829,458.36465c-4.09001,-0.19476 -8.79972,-0.60199 -13.50943,-0.60199c-46.24724,-0.01771 -92.51218,0.07082 -138.75941,0.03541c-19.06902,-0.01771 -38.15574,0.21247 -57.18935,-0.56658c-11.45558,-0.47805 -16.36005,-6.63963 -11.57951,-14.89048c2.30174,-3.98378 10.55259,-6.2324 16.16529,-6.30322c38.13803,-0.54888 76.27607,-0.301 114.4141,-0.3187c39.71384,0 79.44539,0 119.17693,0c1.43416,-3.7359 1.71745,-7.54262 3.77131,-9.3486c10.39323,-9.10072 13.73961,-22.32686 17.58174,-34.10114c4.79824,-14.67801 16.00593,-27.86874 12.99597,-44.8839c-0.14165,-0.81446 1.5581,-1.80598 1.92992,-2.88603c1.59351,-4.69201 5.34712,-10.57029 3.77131,-13.84584c-1.43416,-3.02767 -8.65808,-4.49724 -13.35008,-4.55036c-34.49066,-0.37182 -68.98133,-0.19476 -103.47199,-0.28329c-4.01919,-0.01771 -8.05608,-0.53117 -12.05757,-0.95611c-8.03838,-0.88528 -9.43713,-6.16158 -8.64037,-13.04909c1.16857,-10.10994 9.38401,-7.61344 15.04983,-7.66656c36.91634,-0.35411 73.85039,-0.17706 110.76673,-0.17706c4.32019,0 8.62267,0 15.12065,0c-4.24936,-29.01961 3.04538,-56.09159 -7.57803,-84.45609c-6.37404,-17.05057 -14.14684,-15.38624 -25.567,-15.40394c-73.03593,-0.05312 -146.07186,-0.15935 -219.10779,0.08853c-9.33089,0.03541 -14.07602,-2.00074 -14.11143,-12.62415c-0.03541,-11.63263 7.54262,-9.3663 14.0406,-9.3663c70.61025,-0.08853 141.2028,-0.07082 211.81305,-0.08853c5.9137,0 11.82739,0 22.4508,0c-7.31245,-14.94359 -12.96056,-26.5054 -18.66179,-38.04951c-0.14165,-0.26559 -0.90299,-0.21247 -1.06234,-0.49576c-4.63889,-7.52491 -9.18925,-15.08524 -13.84584,-22.59245c-1.69975,-2.76209 -3.7536,-7.70197 -5.43564,-7.61344c-4.46183,0.23017 -8.87055,2.4965 -13.17303,4.28477c-2.30174,0.95611 -4.32019,3.7359 -6.48028,3.7536c-19.86577,0.28329 -39.73155,0.14165 -59.57961,0.07082c-1.57581,0 -3.91296,0 -4.58577,-0.9384c-9.77354,-13.54485 -26.41687,-20.34383 -33.76473,-37.04028c-2.76209,-6.28552 -11.06605,-14.23537 -23.01738,-12.58874c-13.13761,1.80598 -26.96575,1.78827 -39.99713,-0.42494c-5.50647,-0.9384 -9.70271,-9.50795 -14.50095,-14.60719c4.47954,-1.80598 8.87055,-4.88677 13.45632,-5.18776c12.12839,-0.76134 24.3276,-0.301 36.50911,-0.33641c17.4578,-0.05312 19.0159,-1.64663 18.7149,-19.45854c-0.05312,-2.74438 -0.70823,-5.47106 -1.06234,-7.98526c-9.68501,-1.84139 -18.83884,-3.15161 -27.7448,-5.45335c-5.80746,-1.50498 -11.2254,-6.28552 -16.87351,-6.40946c-29.99342,-0.60199 -60.02226,-0.26559 -90.03338,-0.07082c-4.42642,0.03541 -9.13613,0.24788 -13.20844,1.75286c-14.92589,5.48876 -29.46225,12.07527 -44.51208,17.1568c-7.63115,2.58503 -17.03286,0.35411 -21.10517,10.53488c-1.15087,2.90373 -4.65659,4.85136 -7.08227,7.24162c3.70049,0.88528 7.38327,2.51421 11.08376,2.54962c26.77099,0.24788 53.55968,0 80.33067,0.33641c5.94911,0.07082 11.86281,1.8768 19.70642,3.20473c-6.19699,7.43639 -9.40172,14.43013 -14.6426,16.69646c-5.84287,2.53191 -13.54485,0.83217 -20.43235,0.84987c-36.91634,0.03541 -73.85039,-0.12394 -110.76673,0.15935c-6.65734,0.05312 -13.4032,-1.57581 -18.18373,7.73738c-4.49724,8.76431 -13.13761,15.97052 -21.24682,22.18522c-8.90596,6.81669 -16.85581,13.45632 -18.59096,25.30142c-0.23017,1.61122 -2.31944,2.90373 -3.36408,4.47954c-5.75435,8.7289 -11.45558,17.4578 -17.12139,26.23982c-1.22169,1.89451 -2.35486,3.87754 -3.24014,5.94911c-2.35486,5.55958 -4.56807,11.2077 -7.59574,18.7149c7.96756,0 11.96904,0 15.98823,0c59.24321,0.01771 118.48641,0.301 177.72962,-0.14165c10.85358,-0.08853 12.99597,3.94837 12.1638,13.63337c-0.79676,9.47254 -7.04686,8.39249 -13.01367,8.39249c-60.87213,0.07082 -121.72655,0.07082 -182.59868,0.08853c-5.96681,0 -11.93363,0 -14.44783,0c-5.3117,9.17154 -9.38401,15.43935 -12.4825,22.16751c-0.6197,1.34563 2.01845,5.80746 3.89525,6.37404c4.16083,1.2571 8.79972,1.22169 13.24385,1.2394c26.78869,0.07082 53.6128,0.90299 80.31296,-0.46035c10.49947,-0.53117 13.79272,7.71968 20.69794,11.29622c0.9207,0.47805 0.53117,7.1708 -1.06234,8.21544c-8.28626,5.45335 -15.81117,11.18999 -27.56774,10.49947c-26.27523,-1.54039 -52.70981,-0.77905 -79.07357,-0.49576c-5.01071,0.05312 -12.4825,-1.82369 -12.62415,7.25933c-0.17706,10.81817 -0.03541,21.63634 -0.03541,34.34902c18.02438,0 34.34902,0 51.38188,0c-0.35411,7.84362 -0.6374,13.7042 -1.00922,21.79569c-17.12139,0 -33.07421,0 -49.80608,0c0.44264,6.72816 -0.86758,13.79272 1.29251,15.08524c11.29622,6.78128 6.83439,17.61715 8.55184,26.84181c0.42494,2.24862 1.02693,4.53265 2.00074,6.58651c2.51421,5.36482 5.50647,10.49947 7.89673,15.91741c1.77057,3.98378 2.21321,8.65808 4.42642,12.32315c6.30322,10.48176 13.20844,20.60941 21.06976,32.70239c3.24014,0 8.87055,0 14.51866,0c40.98865,-0.01771 81.9773,0.54888 122.94824,-0.37182c13.65108,-0.301 23.31838,1.89451 26.73558,18.41391c-5.40023,1.2394 -11.01293,3.4349 -16.71416,3.64737c-14.18225,0.56658 -28.39991,0.24788 -42.59987,0.24788c-26.25752,0.01771 -52.51505,0 -80.15361,0c0.37182,6.88751 0.65511,11.96904 0.97381,17.68797c2.7975,0.74364 7.15309,0.74364 7.73738,2.24862c5.6127,14.12913 17.86503,9.54336 27.69168,9.61418c55.98536,0.38952 111.98843,0.14165 167.97379,0.15935c18.04209,0 20.76876,2.08927 20.52088,15.35082c-0.21247,12.05757 -2.54962,13.77502 -21.05205,13.82814c-34.49066,0.10623 -68.98133,-0.05312 -103.47199,-0.03541c-8.1092,0 -16.23611,0.05312 -24.3276,0.6197c-1.8768,0.14165 -4.23166,2.1955 -5.15235,4.00148c-0.58429,1.13316 0.54888,4.3733 1.78827,5.04612c7.73738,4.12542 15.36853,9.38401 23.72561,11.27852c14.50095,3.29326 26.94805,14.67801 43.21957,11.03064c1.02693,-0.23017 2.40797,1.89451 3.82443,2.4965c4.86906,2.12468 9.77354,5.66582 14.74883,5.78976c27.97497,0.6374 55.98536,0.54888 83.97804,0.47805c10.14535,-0.01771 19.67101,-9.26007 20.59171,-19.26378c0.86758,-9.52566 0.90299,-17.88274 9.24237,-26.43458c11.27852,-11.56181 25.51388,-16.64334 38.66921,-23.28297c13.31467,-6.72816 25.33683,4.60348 35.55301,12.18151c7.94985,5.9137 12.71268,10.53488 21.60093,1.41645c6.32093,-6.48028 16.69646,-9.17154 22.53933,-15.8997c6.46257,-7.4718 20.66253,-11.49099 14.94359,-27.62086zm-31.99416,-357.19439c11.82739,5.94911 21.99045,-3.4172 30.25901,-11.13687c10.94211,-10.19847 23.9912,-20.30842 22.80492,-38.82856c-0.65511,-10.287 -3.80672,-18.36079 -8.4279,-27.69168c-6.48028,-13.06679 -12.07527,-23.24756 -27.81562,-24.11514c-1.75286,-0.08853 -3.39949,-1.68204 -5.15235,-2.44338c-4.78053,-2.05386 -10.19847,-6.58651 -14.27078,-5.59499c-12.92515,3.13391 -24.54007,8.90596 -36.1727,16.57252c-11.17228,7.36556 -11.24311,18.78573 -16.43087,27.28445c-6.16158,10.10994 -4.23166,24.96501 5.70123,37.74851c12.62415,16.25381 24.57548,30.36524 49.50508,28.20515zm-88.26282,445.15621c-0.14165,24.20366 6.60422,31.1797 30.34754,31.35676c22.99968,0.17706 30.25901,-6.99374 30.34754,-29.99342c0.08853,-22.18522 -7.71968,-30.43606 -28.78944,-30.43606c-24.22137,-0.01771 -31.7817,6.8698 -31.90564,29.07273z"/>
   <path stroke="null" id="svg_2" d="m73.84468,133.68756c-0.65511,-5.17006 -1.02693,-10.39323 -2.00074,-15.51018c-2.1955,-11.63263 -8.58725,-20.00742 -20.20218,-23.46003c-18.64408,-5.54188 -22.41539,-11.01293 -18.46702,-28.91338c4.07231,-0.28329 8.4102,-0.54888 12.74809,-0.9207c4.40871,-0.37182 8.79972,-0.86758 13.15532,-1.31022c5.57729,-12.83662 10.94211,-25.17748 17.01516,-39.14726c2.95685,0 8.4279,0 14.71342,0c0.47805,4.09001 1.09775,7.56033 1.27481,11.04834c1.09775,21.44158 7.64885,28.73632 28.77173,29.46225c13.84584,0.47805 12.25233,9.43713 12.42939,16.57252c-13.77502,8.51643 -26.64705,15.82888 -38.63379,24.38072c-2.4788,1.77057 -2.72667,19.6356 -2.93914,23.88496c-0.56658,11.56181 -10.80046,-0.70823 -15.04983,6.35634c-0.9207,-0.81446 -1.8768,-1.62892 -2.8152,-2.44338zm5.13465,-46.97317c4.90447,-2.51421 8.49873,-4.3733 12.09298,-6.21469c-3.50572,-1.73516 -6.90522,-4.42642 -10.57029,-4.83365c-2.28403,-0.24788 -4.95759,2.95685 -7.45409,4.60348c1.78827,1.92992 3.57655,3.87754 5.9314,6.44487z"/>
   <path stroke="null" id="svg_3" d="m93.37405,645.54107c6.46257,0 11.5264,0 17.61715,0c0.46035,5.84287 0.88528,11.29622 1.39875,17.74109c-6.65734,0 -12.41168,0 -19.0159,0c0,-5.41794 0,-10.80046 0,-17.74109z"/>
   <path stroke="null" id="svg_4" d="m650.66033,144.68279c-0.26559,-5.48876 -0.53117,-10.97752 -0.90299,-18.75032c6.63963,0.9384 12.27004,1.59351 17.81191,2.76209c0.47805,0.10623 1.11546,4.33789 0.21247,5.294c-4.3733,4.65659 -9.24237,8.87055 -13.93437,13.22614c-1.06234,-0.83217 -2.12468,-1.68204 -3.18702,-2.53191z"/>
   <path stroke="null" id="svg_5" d="m620.80855,599.94894c-0.46035,10.32241 -0.70823,15.75806 -0.9384,21.08746c-6.5334,1.09775 -20.43235,-8.90596 -17.91815,-11.86281c3.50572,-4.12542 10.39323,-5.36482 18.85655,-9.22466z"/>
   <path stroke="null" id="svg_6" fill="#19B790" d="m558.23668,533.67658c5.71893,16.12987 -8.46332,20.14906 -14.9613,27.63857c-5.84287,6.74586 -16.2184,9.41942 -22.53933,15.8997c-8.88825,9.11843 -13.65108,4.49724 -21.60093,-1.41645c-10.21618,-7.59574 -22.22063,-18.90967 -35.55301,-12.18151c-13.15532,6.63963 -27.37298,11.72116 -38.66921,23.28297c-8.35708,8.55184 -8.37479,16.90892 -9.24237,26.43458c-0.90299,9.986 -10.42865,19.22837 -20.59171,19.26378c-27.99268,0.07082 -55.98536,0.15935 -83.97804,-0.47805c-4.95759,-0.10623 -9.87977,-3.66508 -14.74883,-5.78976c-1.39875,-0.60199 -2.7975,-2.72667 -3.82443,-2.4965c-16.25381,3.64737 -28.71861,-7.73738 -43.21957,-11.03064c-8.33938,-1.89451 -15.97052,-7.15309 -23.72561,-11.27852c-1.2394,-0.65511 -2.37256,-3.91296 -1.78827,-5.04612c0.9207,-1.78827 3.27555,-3.85984 5.15235,-4.00148c8.07379,-0.56658 16.2184,-0.6197 24.3276,-0.6197c34.49066,-0.01771 68.98133,0.12394 103.47199,0.03541c18.48473,-0.05312 20.82188,-1.77057 21.05205,-13.82814c0.23017,-13.26155 -2.4788,-15.35082 -20.52088,-15.35082c-55.98536,-0.01771 -111.98843,0.23017 -167.97379,-0.15935c-9.82665,-0.07082 -22.07898,4.53265 -27.69168,-9.61418c-0.60199,-1.50498 -4.93988,-1.50498 -7.73738,-2.24862c-0.3187,-5.71893 -0.58429,-10.80046 -0.97381,-17.68797c27.63857,0 53.89609,0.01771 80.15361,0c14.19996,0 28.41762,0.301 42.59987,-0.24788c5.70123,-0.23017 11.31393,-2.40797 16.71416,-3.64737c-3.39949,-16.50169 -13.0845,-18.7149 -26.73558,-18.41391c-40.97094,0.9207 -81.95959,0.35411 -122.94824,0.37182c-5.64811,0 -11.29622,0 -14.51866,0c-7.86132,-12.09298 -14.76654,-22.22063 -21.06976,-32.70239c-2.21321,-3.66508 -2.67356,-8.33938 -4.42642,-12.32315c-2.39027,-5.41794 -5.36482,-10.55259 -7.89673,-15.91741c-0.97381,-2.05386 -1.59351,-4.33789 -2.00074,-6.58651c-1.71745,-9.22466 2.74438,-20.06054 -8.55184,-26.84181c-2.16009,-1.29251 -0.84987,-8.33938 -1.29251,-15.08524c16.73187,0 32.68469,0 49.80608,0c0.37182,-8.0915 0.6374,-13.95208 1.00922,-21.79569c-17.03286,0 -33.3575,0 -51.38188,0c0,-12.71268 -0.14165,-23.53085 0.03541,-34.34902c0.14165,-9.08301 7.61344,-7.20621 12.62415,-7.25933c26.36376,-0.26559 52.79834,-1.04464 79.07357,0.49576c11.75657,0.69052 19.28149,-5.04612 27.56774,-10.49947c1.59351,-1.04464 1.98304,-7.73738 1.06234,-8.21544c-6.90522,-3.57655 -10.19847,-11.82739 -20.69794,-11.29622c-26.71787,1.36334 -53.54198,0.53117 -80.31296,0.46035c-4.44413,-0.01771 -9.08301,0.01771 -13.24385,-1.2394c-1.8768,-0.56658 -4.51495,-5.02841 -3.89525,-6.37404c3.09849,-6.71045 7.1708,-12.99597 12.4825,-22.16751c2.51421,0 8.48102,0 14.44783,0c60.87213,-0.01771 121.72655,-0.01771 182.59868,-0.08853c5.96681,0 12.21692,1.08005 13.01367,-8.39249c0.81446,-9.68501 -1.31022,-13.7219 -12.1638,-13.63337c-59.24321,0.44264 -118.48641,0.17706 -177.72962,0.14165c-4.01919,0 -8.02067,0 -15.98823,0c3.04538,-7.52491 5.24088,-13.15532 7.59574,-18.7149c0.88528,-2.07156 2.01845,-4.0546 3.24014,-5.94911c5.66582,-8.78202 11.36705,-17.52862 17.12139,-26.23982c1.02693,-1.57581 3.1162,-2.85061 3.36408,-4.47954c1.73516,-11.8451 9.68501,-18.46702 18.59096,-25.30142c8.1092,-6.21469 16.73187,-13.42091 21.24682,-22.18522c4.78053,-9.31319 11.5264,-7.68427 18.18373,-7.73738c36.91634,-0.301 73.85039,-0.12394 110.76673,-0.15935c6.88751,0 14.58948,1.68204 20.43235,-0.84987c5.24088,-2.26633 8.44561,-9.27778 14.6426,-16.69646c-7.84362,-1.32793 -13.75731,-3.13391 -19.70642,-3.20473c-26.77099,-0.33641 -53.55968,-0.08853 -80.33067,-0.33641c-3.70049,-0.03541 -7.40097,-1.66433 -11.08376,-2.54962c2.42568,-2.39027 5.9314,-4.3556 7.08227,-7.24162c4.07231,-10.18077 13.47402,-7.96756 21.10517,-10.53488c15.04983,-5.08153 29.58619,-11.68575 44.51208,-17.1568c4.07231,-1.50498 8.78202,-1.71745 13.20844,-1.75286c30.01113,-0.19476 60.03996,-0.53117 90.03338,0.07082c5.64811,0.10623 11.06605,4.90447 16.87351,6.40946c8.90596,2.30174 18.05979,3.61196 27.7448,5.45335c0.35411,2.51421 1.00922,5.25859 1.06234,7.98526c0.301,17.81191 -1.2571,19.38772 -18.7149,19.45854c-12.1638,0.03541 -24.38072,-0.42494 -36.50911,0.33641c-4.56807,0.28329 -8.97678,3.36408 -13.45632,5.18776c4.79824,5.09924 8.99449,13.66879 14.50095,14.60719c13.01367,2.21321 26.85952,2.23092 39.99713,0.42494c11.96904,-1.64663 20.2553,6.30322 23.01738,12.58874c7.34786,16.69646 24.0089,23.49544 33.76473,37.04028c0.67282,0.9384 3.02767,0.9384 4.58577,0.9384c19.86577,0.08853 39.73155,0.21247 59.57961,-0.07082c2.1778,-0.03541 4.17854,-2.7975 6.48028,-3.7536c4.30248,-1.78827 8.71119,-4.0546 13.17303,-4.28477c1.68204,-0.08853 3.71819,4.85136 5.43564,7.61344c4.65659,7.50721 9.20695,15.06753 13.84584,22.59245c0.17706,0.28329 0.9384,0.21247 1.06234,0.49576c5.68352,11.5441 11.34934,23.10591 18.66179,38.04951c-10.64111,0 -16.55481,0 -22.4508,0c-70.61025,0.01771 -141.2028,0 -211.81305,0.08853c-6.49798,0 -14.07602,-2.24862 -14.0406,9.3663c0.03541,10.62341 4.78053,12.65956 14.11143,12.62415c73.03593,-0.24788 146.07186,-0.15935 219.10779,-0.08853c11.42016,0.01771 19.19296,-1.64663 25.567,15.40394c10.6057,28.34679 3.31096,55.41878 7.57803,84.45609c-6.49798,0 -10.81817,0 -15.12065,0c-36.91634,0 -73.85039,-0.17706 -110.76673,0.17706c-5.66582,0.05312 -13.86355,-2.44338 -15.04983,7.66656c-0.79676,6.8698 0.60199,12.1638 8.64037,13.04909c4.00148,0.44264 8.03838,0.95611 12.05757,0.95611c34.49066,0.08853 68.98133,-0.10623 103.47199,0.28329c4.69201,0.05312 11.91592,1.54039 13.35008,4.55036c1.5581,3.29326 -2.1955,9.15384 -3.77131,13.84584c-0.37182,1.08005 -2.07156,2.07156 -1.92992,2.88603c3.00997,17.01516 -8.19773,30.20589 -12.99597,44.8839c-3.84213,11.79198 -7.18851,25.01813 -17.58174,34.10114c-2.05386,1.80598 -2.33715,5.6127 -3.77131,9.3486c-39.73155,0 -79.44539,0 -119.17693,0c-38.13803,0 -76.29378,-0.23017 -114.4141,0.3187c-5.59499,0.08853 -13.86355,2.31944 -16.16529,6.30322c-4.78053,8.25085 0.12394,14.41242 11.57951,14.89048c19.03361,0.77905 38.12033,0.54888 57.18935,0.56658c46.24724,0.03541 92.51218,-0.05312 138.75941,-0.03541c4.70971,-0.01771 9.41942,0.38952 13.52714,0.58429zm-42.56445,-78.71945c-1.66433,-1.18628 -5.52417,-2.4965 -5.86058,-4.42642c-2.08927,-11.82739 -10.9244,-9.52566 -18.62638,-9.54336c-21.88422,-0.08853 -43.76844,-0.07082 -65.65266,-0.07082c-49.02703,-0.01771 -98.08947,0.60199 -147.09879,-0.51346c-11.57951,-0.26559 -14.12913,9.54336 -21.84881,12.97826c-0.56658,0.24788 -0.47805,4.65659 0.53117,5.36482c7.34786,5.13465 12.51792,12.19921 24.06202,12.00445c64.00603,-1.04464 128.04748,-0.54888 192.07122,-0.67282c15.49247,-0.01771 32.54304,4.72742 42.42281,-15.12065zm-321.00398,-75.00126c-2.31944,21.03435 -2.31944,21.15829 16.00593,21.17599c65.17461,0.07082 130.34922,0.05312 195.54153,-0.01771c3.98378,0 8.65808,0.24788 11.77428,-1.62892c3.38178,-2.03615 7.1708,-6.26781 7.56033,-9.87977c1.46957,-13.88125 -9.91518,-10.12765 -16.80269,-10.16306c-66.80353,-0.33641 -133.58936,-0.21247 -200.39289,-0.15935c-4.39101,-0.01771 -8.74661,0.40723 -13.68649,0.67282zm72.6287,-178.01291c7.25933,15.52788 21.24682,14.6603 35.32283,14.44783c22.71639,-0.33641 45.45048,-0.79676 68.13146,0.19476c14.41242,0.6374 26.09817,-2.35486 33.58768,-13.93437c-5.9137,-16.14758 -18.82114,-15.77576 -32.45451,-15.42165c-22.69868,0.60199 -45.41507,0.12394 -68.13146,0.23017c-14.05831,0.08853 -29.78095,-4.10772 -36.456,14.48325zm9.61418,124.01058c6.35634,3.70049 13.35008,11.15458 20.62712,11.45558c32.33057,1.34563 64.76738,1.34563 97.11566,0.15935c6.97604,-0.24788 13.77502,-7.27703 20.46777,-11.50869c0.74364,-0.46035 0.53117,-4.30248 0.14165,-4.42642c-7.91444,-2.33715 -8.67578,-13.65108 -20.32612,-12.96056c-26.62934,1.59351 -53.40033,0.46035 -80.13591,0.51346c-14.46554,0.05312 -30.48918,-3.96607 -37.89016,16.76728z" class="st0"/>
   <path stroke="null" id="svg_7" fill="#C49A6C" d="m526.24252,176.48219c-24.9473,2.16009 -36.89864,-11.93363 -49.52279,-28.16974c-9.93289,-12.7658 -11.86281,-27.63857 -5.70123,-37.74851c5.18776,-8.49873 5.25859,-19.91889 16.43087,-27.28445c11.63263,-7.68427 23.24756,-13.43861 36.1727,-16.57252c4.07231,-0.99152 9.49024,3.52343 14.27078,5.59499c1.75286,0.76134 3.39949,2.33715 5.15235,2.44338c15.74035,0.86758 21.33534,11.04834 27.81562,24.11514c4.62118,9.31319 7.77279,17.40468 8.4279,27.69168c1.18628,18.52014 -11.86281,28.63008 -22.80492,38.82856c-8.25085,7.66656 -18.41391,17.05057 -30.2413,11.10146z" class="st1"/>
   <path stroke="null" id="svg_8" fill="#C49A6C" d="m437.9797,621.6384c0.12394,-22.20292 7.68427,-29.09043 31.90564,-29.07273c21.06976,0.01771 28.87796,8.26855 28.78944,30.43606c-0.08853,22.99968 -7.34786,30.17048 -30.34754,29.99342c-23.74332,-0.19476 -30.48918,-7.1708 -30.34754,-31.35676z" class="st1"/>
   <path stroke="null" id="svg_9" fill="#FFFFFF" d="m78.97933,86.71439c-2.35486,-2.56732 -4.14313,-4.51495 -5.9314,-6.46257c2.4965,-1.64663 5.17006,-4.85136 7.45409,-4.60348c3.66508,0.40723 7.06457,3.1162 10.57029,4.83365c-3.59425,1.8591 -7.18851,3.70049 -12.09298,6.2324z" class="st2"/>
   <path stroke="null" id="svg_10" d="m515.67222,454.95713c-9.87977,19.84807 -26.93034,15.10295 -42.42281,15.13836c-64.02374,0.12394 -128.06518,-0.37182 -192.07122,0.67282c-11.5441,0.19476 -16.71416,-6.8698 -24.06202,-12.00445c-1.00922,-0.70823 -1.09775,-5.11694 -0.53117,-5.36482c7.71968,-3.4349 10.26929,-13.24385 21.84881,-12.97826c49.00932,1.11546 98.05406,0.49576 147.09879,0.51346c21.88422,0 43.76844,-0.01771 65.65266,0.07082c7.70197,0.03541 16.53711,-2.28403 18.62638,9.54336c0.33641,1.91221 4.19625,3.22243 5.86058,4.40871z"/>
   <path stroke="null" id="svg_11" d="m194.66824,379.95587c4.93988,-0.26559 9.31319,-0.69052 13.66879,-0.69052c66.80353,-0.05312 133.58936,-0.17706 200.39289,0.15935c6.88751,0.03541 18.27226,-3.71819 16.80269,10.16306c-0.38952,3.61196 -4.17854,7.84362 -7.56033,9.87977c-3.13391,1.89451 -7.7905,1.62892 -11.77428,1.62892c-65.17461,0.07082 -130.34922,0.07082 -195.54153,0.01771c-18.30767,0 -18.30767,-0.12394 -15.98823,-21.15829z"/>
   <path stroke="null" id="svg_12" d="m267.29694,201.94296c6.67504,-18.57326 22.39769,-14.37701 36.43829,-14.44783c22.71639,-0.12394 45.43278,0.37182 68.13146,-0.23017c13.63337,-0.35411 26.55852,-0.72593 32.45451,15.42165c-7.4718,11.57951 -19.15755,14.55407 -33.58768,13.93437c-22.66327,-0.99152 -45.41507,-0.53117 -68.13146,-0.19476c-14.05831,0.15935 -28.0458,1.04464 -35.30513,-14.48325z"/>
   <path stroke="null" id="svg_13" d="m276.91113,325.95354c7.40097,-20.73335 23.42461,-16.71416 37.87245,-16.74957c26.71787,-0.07082 53.50657,1.06234 80.13591,-0.51346c11.65034,-0.69052 12.41168,10.62341 20.32612,12.96056c0.40723,0.12394 0.60199,3.94837 -0.14165,4.42642c-6.67504,4.21395 -13.47402,11.24311 -20.46777,11.50869c-32.33057,1.18628 -64.78508,1.18628 -97.11566,-0.15935c-7.27703,-0.33641 -14.25307,-7.77279 -20.60941,-11.47328z"/>
  </g>
 </g>
</svg>