<svg id="Layer_1" data-name="Layer 1" xmlns="http://www.w3.org/2000/svg" viewBox="0 0 264.01 241.96"><defs><style>.cls-1{fill:#19b790;}.cls-2{fill:#c49a6c;}.cls-3{fill:#fff;}</style></defs><path d="M443.81,172.84c2.12-2.52,3.6-5.12,6.94-5.69,1.06-.18,2-1.12,3-1.53a11.82,11.82,0,0,1,4.09-1.16c3.44,0,7.28-1.37,10,2.27.25.34,1.06.33,1.61.37,3.22.24,4.36,3.5,6.62,4.66,3,1.56,2.18,5,4.57,6.61a2.82,2.82,0,0,1,.75,2.07c.07,4,.09,7.95,0,11.92a4.58,4.58,0,0,1-.92,2.76c-2.6,3-2.31,6,.43,9.1,1.66,1.86,2.6,4.37,3.93,6.55,1.55,2.56,3.21,5,4.73,7.63a8.63,8.63,0,0,1,.56,2.21c.36,1.37-.42,3.23,2,3.75.49.11.61,2.17.81,3.34.47,2.74-.94,6,2.39,8,.42.25.36,1.47.36,2.25,0,9.54.09,19.09-.06,28.63,0,1.18-1.33,2.29-1.71,3.54A43.91,43.91,0,0,0,493,275c-.39,2.16.84,4.95-2.33,6a.36.36,0,0,0-.2.26c.95,3.64-2.86,5.61-3.15,8.86-.06.75-.94,1.43-1.48,2.12-.32.4-1,.73-1,1.13-.26,3.67-3,5.59-5.18,8.07-1.47,1.68-1.4,4.38-3.78,5.8-1.41.84-2,3-3.3,4.09-3,2.39-6.46,4.21-9.26,6.78-1.87,1.73-5.08,3-4.19,6.73.35,1.49-.25,3.18-.1,4.74.4,4.05-2.34,5.88-4.83,8.4-5,5.1-10.83,2-16.24,2.16-1.47.06-3.82-1.94-4.35-3.49-1-3-3.18-2.22-5-2.21-7.83,0-15.66.4-23.49.37-3.49,0-7.15.54-10.29-2.1-.94-.79-2.91-.22-4.3-.64-1.89-.58-3.66-1.56-5.52-2.28a18.32,18.32,0,0,0-2.55-.65c-1.41-.33-3.39.38-3.62-2.07,0-.22-.43-.53-.71-.59-2-.41-3.69-.71-5.53-2.43-1.3-1.23-4.33-1.77-6.25-3.35-3.27-2.69-6.61-5.3-9.78-8.1-2.26-2-4.31-4.22-6.4-6.39a30.08,30.08,0,0,1-2-2.5c-1.58-2-3.16-4-4.76-6-.13-.16-.48-.19-.55-.36-1.18-2.72-2.28-5.47-3.5-8.17a13.39,13.39,0,0,0-1.64-2.42c-.24-.34-.89-.59-.87-.86.12-2.69-2.05-4.71-2.44-6.89-1.43-8.17-4.91-16-3.78-24.67.6-4.59,0-9.32.32-14,.15-2.11,1.25-4.14,1.84-6.22.42-1.52.71-3.07,1-4.61.47-2.12-.81-4.87,2.29-6,.28-.11.26-1,.35-1.6.28-1.68-.27-3.69,2.2-4.43.46-.14.44-1.63.82-2.41a26.38,26.38,0,0,1,1.73-2.75c.28-.44.83-.87.82-1.3,0-3.47,2.63-5.15,4.67-7.26.43-.45.49-1.23.88-1.74,1.65-2.13,3.35-4.23,5.06-6.33,1.32-1.6,2.63-3.22,4-4.76a19.21,19.21,0,0,1,3.43-3.32c2-1.31,4.31-2.18,6.35-3.46,2.49-1.57,4.71-3.59,7.27-5a51.38,51.38,0,0,1,7.9-3.43c1.37-.51,3.34.24,3.64-2.11,0-.16.31-.44.44-.42,4.32.62,7.82-2.64,11.75-2.81,10.2-.45,20.44-.24,30.67-.06,1.67,0,3.27,1.51,5,1.84a71.27,71.27,0,0,0,8,.83A21.14,21.14,0,0,0,443.81,172.84ZM470,301.22c-1.15-.06-2.47-.17-3.79-.17-12.95,0-25.91,0-38.86,0-5.34,0-10.69.06-16-.16-3.21-.13-4.59-1.86-3.25-4.17.65-1.12,3-1.75,4.53-1.77,10.68-.15,21.37-.08,32-.09H478c.39-1,.48-2.11,1.05-2.61,2.91-2.55,3.85-6.26,4.93-9.56,1.34-4.11,4.48-7.8,3.64-12.57,0-.23.43-.5.54-.81.44-1.31,1.49-2.95,1.05-3.87s-2.42-1.27-3.74-1.28c-9.66-.11-19.32-.05-29-.08a31.87,31.87,0,0,1-3.37-.27c-2.26-.25-2.65-1.73-2.42-3.65.32-2.83,2.62-2.14,4.21-2.15,10.34-.1,20.68,0,31,0h4.24c-1.19-8.13.85-15.71-2.12-23.65-1.79-4.78-4-4.31-7.16-4.32-20.46,0-40.91,0-61.37,0-2.61,0-3.94-.56-3.95-3.54,0-3.25,2.11-2.62,3.93-2.62q29.66,0,59.32,0h6.29c-2.05-4.19-3.63-7.43-5.22-10.66,0-.07-.25-.06-.3-.14-1.3-2.1-2.58-4.22-3.88-6.32-.48-.78-1.05-2.16-1.52-2.14a11.67,11.67,0,0,0-3.69,1.21c-.65.26-1.21,1-1.82,1-5.56.08-11.12,0-16.68,0-.44,0-1.1,0-1.29-.27-2.74-3.79-7.4-5.69-9.46-10.37a6.17,6.17,0,0,0-6.45-3.52,37.54,37.54,0,0,1-11.2-.12c-1.54-.27-2.71-2.67-4.06-4.09,1.26-.51,2.49-1.37,3.77-1.45,3.4-.22,6.82-.09,10.23-.1,4.88,0,5.32-.46,5.24-5.45a17.54,17.54,0,0,0-.3-2.24c-2.71-.51-5.27-.88-7.77-1.52-1.63-.42-3.14-1.76-4.72-1.8-8.41-.17-16.81-.07-25.22,0a11.14,11.14,0,0,0-3.7.49c-4.18,1.54-8.25,3.38-12.47,4.81-2.13.72-4.77.1-5.91,2.95-.32.81-1.3,1.36-2,2a14.54,14.54,0,0,0,3.11.71c7.5.07,15,0,22.5.1a38.65,38.65,0,0,1,5.52.9c-1.74,2.08-2.63,4-4.1,4.67-1.64.71-3.8.24-5.73.24-10.34,0-20.68,0-31,.05-1.87,0-3.75-.45-5.09,2.16-1.26,2.46-3.68,4.47-5.95,6.21-2.5,1.91-4.72,3.77-5.21,7.09-.06.45-.65.81-.94,1.25q-2.41,3.66-4.79,7.35a11.73,11.73,0,0,0-.91,1.67c-.66,1.55-1.28,3.13-2.13,5.24h4.48c16.59,0,33.18.08,49.78,0,3,0,3.63,1.11,3.4,3.82s-2,2.35-3.64,2.35q-25.57,0-51.14,0h-4.05c-1.49,2.57-2.63,4.33-3.49,6.21-.18.38.56,1.63,1.09,1.79a13,13,0,0,0,3.7.34c7.5,0,15,.26,22.5-.13,2.94-.15,3.86,2.16,5.8,3.17a2.82,2.82,0,0,1-.3,2.3c-2.32,1.52-4.43,3.13-7.72,2.94-7.37-.44-14.77-.22-22.15-.14-1.41,0-3.5-.52-3.54,2-.05,3,0,6.06,0,9.62H351.1c-.1,2.2-.18,3.84-.28,6.11H336.87c.12,1.88-.24,3.86.36,4.22,3.16,1.9,1.91,4.94,2.39,7.52a7.28,7.28,0,0,0,.57,1.84c.7,1.51,1.54,2.95,2.21,4.46a29.51,29.51,0,0,0,1.24,3.46c1.76,2.93,3.7,5.77,5.9,9.16h4.07c11.47,0,23,.15,34.43-.11,3.82-.09,6.53.53,7.49,5.16a26.48,26.48,0,0,1-4.69,1c-4,.16-7.95.07-11.93.07-7.35,0-14.7,0-22.44,0,.1,1.93.18,3.36.27,5,.78.21,2,.21,2.16.63,1.58,4,5,2.67,7.76,2.69,15.68.11,31.37,0,47,0,5.05,0,5.81.59,5.75,4.3-.06,3.38-.72,3.86-5.9,3.87-9.66,0-19.32,0-29,0-2.28,0-4.55,0-6.82.18a2.19,2.19,0,0,0-1.44,1.12,1.55,1.55,0,0,0,.5,1.41c2.17,1.16,4.31,2.63,6.65,3.16,4,.92,7.54,4.11,12.1,3.09.28-.07.67.53,1.07.7,1.36.59,2.74,1.59,4.13,1.62,7.83.18,15.67.15,23.51.13a6.16,6.16,0,0,0,5.77-5.39c.24-2.67.25-5,2.59-7.4,3.16-3.24,7.15-4.67,10.83-6.52s7.1,1.28,10,3.41c2.22,1.65,3.56,3,6.05.39,1.77-1.81,4.67-2.56,6.31-4.45C467.61,306.86,471.59,305.74,470,301.22Zm-9-100c3.31,1.66,6.16-1,8.48-3.12,3.06-2.86,6.71-5.69,6.38-10.88a19.24,19.24,0,0,0-2.36-7.75c-1.82-3.66-3.38-6.51-7.79-6.75-.49,0-.95-.47-1.44-.69-1.34-.57-2.86-1.84-4-1.56a31.74,31.74,0,0,0-10.13,4.64c-3.13,2.06-3.15,5.26-4.61,7.64-1.72,2.83-1.18,7,1.6,10.57C450.7,197.83,454,201.78,461,201.18ZM436.31,325.85c0,6.78,1.85,8.73,8.5,8.79,6.44.05,8.47-2,8.5-8.4,0-6.22-2.16-8.53-8.07-8.53C438.46,317.71,436.34,319.64,436.31,325.85Z" transform="translate(-277.03 -158.59)"/><path d="M339.4,368.69c4,0,7.59.12,11.17,0,3.14-.14,4.18,2.65,5.84,4.21,5,4.68,3.74,10.85,3,16.74-.11.85-1,1.6-1.56,2.39-.05.07-.3.06-.31.1-.58,3.69-3.52,4.66-6.3,6.37-3,1.87-6.14,2.27-9.24,0-1.07-.79-3.37-.09-5.07.21s-3.68,1.75-4.91,1.23c-1.63-.7-3.74-2.8-3.77-4.34q-.45-19.56,0-39.14c0-1.54,2.15-3.67,3.78-4.34,1.29-.53,3.17-.7,5.19,1.25,2.87,2.78,2,5.5,2.21,8.38C339.52,364,339.4,366.19,339.4,368.69Zm.05,14.93c0,4.65.62,5.29,5.2,5.29,2.73,0,6.12-3,6.12-5.33,0-2.57-3.39-6.05-5.88-6.06C342.22,377.51,339.45,380.61,339.45,383.62Z" transform="translate(-277.03 -158.59)"/><path d="M464.37,358.39c0,1.65.48,3.73-.14,5.39s-2.33,3.26-3.67,4.77c-.2.21-1.18,0-1.56-.27-5-4-10.73-2.69-16.14-1.64-1.55.3-2.78,2.94-3.88,4.68a19.25,19.25,0,0,0-2.44,5.27c-.54,2.11,3,7.35,4.58,9.51,3.87,5.43,9.09,2.24,13.69,2.58,1.22.09,2.47-1.85,3.89-2.38,1.69-.63,5.29,2.32,5.64,4.3.7,4-.37,6-3.37,6.83-1.19.34-2.11,2.07-3.22,2.14-5.06.3-10.27.94-15.17.06-3.24-.57-6.62-3-8.91-5.53-3.24-3.57-7.11-7.13-6.31-13,.5-3.68-.29-7.55.32-11.2.4-2.4,2-4.73,3.53-6.78a29,29,0,0,1,5-4.77c.6-.49,1.66-.38,2.42-.75,1.07-.51,2-1.24,3.08-1.82a4.71,4.71,0,0,1,2-.84c4.08-.09,8.18-.18,12.25,0,1,.05,1.9,1.35,3,1.78C460.47,357.37,462.16,357.74,464.37,358.39Z" transform="translate(-277.03 -158.59)"/><path d="M405.62,391.62c2.43,0,5.15,0,7.87,0a4.17,4.17,0,0,0,2-.36,18,18,0,0,0,2.34-2c1.24,1.55,2.82,2.94,3.64,4.69.93,2-1.95,6-4.39,6.13-4.87.22-9.83.63-14.61,0-2.31-.32-4.42-2.77-6.41-4.5-1.18-1-1.68-3.09-3-3.68-3.37-1.56-2.4-4.45-2.29-6.78.14-2.92-1.6-6.33,2.22-8.68,1.24-.76.52-3.32,2.73-5,4.51-3.39,9.14-6,14.59-4.81a18.24,18.24,0,0,1,8.95,4.12c4.9,4.48,1.86,9.71,2.86,15.52h-20Zm1.83-14.41c-.8.09-2,.15-3.25.39-.59.12-1.59.59-1.57.85a3.61,3.61,0,0,0,.9,1.89,9.21,9.21,0,0,0,1.72,1.57c3,2.33,4.72-.44,6.71-1.84.49-.34.64-1.17,1-1.78l-4.69-1.07A4.47,4.47,0,0,0,407.45,377.21Z" transform="translate(-277.03 -158.59)"/><path d="M502,383.49c-.33,2.67.34,6.42-1.17,7.81-4.27,3.95-7.45,10.28-15,9.11-2.11-.33-5.63.33-6.15-.69-1.49-2.85-5.05-1.53-6.16-3.7-2.11-4.1-4.4-8.32-5.3-12.76-.51-2.52.83-6.25,2.64-8.25,3.91-4.33,8.29-8.56,14.83-8.68a9.63,9.63,0,0,1,3.69.4c2.21.91,4.7,1.72,6.32,3.34C499.34,373.68,503.58,377.29,502,383.49Zm-13.42-5.93c-5.37-.49-7.93.4-9.49,3.78-1.5,3.22,1.07,5.74,2.77,7s5.65,1.38,7.35.19C493.36,385.59,493.59,381.55,488.57,377.56Z" transform="translate(-277.03 -158.59)"/><path d="M511.15,366.2c2.82,4.56,5,7.95,7,11.44.53.93.26,2.39.89,3.19a18.7,18.7,0,0,0,3.46,2.79c.58-.79,1-2,1.76-2.3,3.48-1.16,1.29-6.1,4.9-7.12.32-.09.57-1.26.46-1.85-.57-3.09,2.89-3.48,3.69-5.63,0-.12.41-.15.63-.18,1.75-.24,7.12,4.07,7.08,5.87a4.94,4.94,0,0,1-1.2,2.29c-.21.32-1,.55-1,.67.94,3.7-3.23,5.1-3.71,8.25a6.27,6.27,0,0,1-2.61,3.83c-2.72,1.78-1.44,6-4.94,7.33-1.28.5-1.82,2.67-2.9,3.91-2.16,2.49-4,1.08-6.46-.28-3.28-1.79-1.26-6.49-5.12-7.16.18-2.81-1.65-4.68-3.1-6.76-1.67-2.39-3.11-5-4.94-7.23-1.41-1.75-.85-7.46,1.16-8.53C508,367.8,509.77,366.9,511.15,366.2Z" transform="translate(-277.03 -158.59)"/><path d="M308.3,391.69c-.13,2.93-.23,5.28-.35,8.12H277V355.08h8.42c.13,2.34.35,4.68.36,7,0,7.84,0,15.68,0,23.52a5.69,5.69,0,0,0,6,6.07C297.12,391.71,302.43,391.69,308.3,391.69Z" transform="translate(-277.03 -158.59)"/><path d="M390.52,370.1c-.14,1.22,0,2.88-.6,4.22-.47,1.06-1.84,1.71-3.54,3.16H376.32c0,5.7,0,11.19,0,16.68a6,6,0,0,1-6.18,6.13c-2.39-.08-5.12-2.69-5.13-5.08,0-7.93,0-15.86,0-23.8,0-1.8.51-2.8,2.46-2.75a46.69,46.69,0,0,0,6.37,0c2.8-.31,5.56-1,8.34-1.49a5,5,0,0,1,2.51-.18C386.55,367.8,388.32,368.91,390.52,370.1Z" transform="translate(-277.03 -158.59)"/><path d="M334.32,189.19c-.18-1.45-.29-2.91-.56-4.34a7.83,7.83,0,0,0-5.66-6.57c-5.22-1.56-6.28-3.09-5.17-8.1,1.14-.08,2.36-.15,3.57-.26s2.47-.24,3.69-.36c1.56-3.6,3.06-7.06,4.77-11h4.11c.14,1.15.31,2.12.36,3.1.31,6,2.14,8,8.06,8.25,3.88.13,3.43,2.64,3.48,4.64-3.86,2.38-7.46,4.43-10.82,6.83-.69.49-.76,5.49-.82,6.69-.16,3.23-3-.2-4.21,1.77ZM335.76,176l3.39-1.74a10,10,0,0,0-3-1.35c-.64-.07-1.39.82-2.09,1.29Z" transform="translate(-277.03 -158.59)"/><path d="M322.27,368.85v30.54c-.43.26-.61.45-.8.47-8,1-7.92.74-8.05-6.65-.12-6.79,0-13.59,0-20.38,0-4.23.49-4.62,4.74-4.46C319.51,368.41,320.83,368.67,322.27,368.85Z" transform="translate(-277.03 -158.59)"/><path d="M322.21,351.78v11h-8.57c.18-3.52-.33-7.17.88-10.11C315,351.56,319.38,352.05,322.21,351.78Z" transform="translate(-277.03 -158.59)"/><path d="M339.79,332.55h4.94c.13,1.64.24,3.16.39,5h-5.33Z" transform="translate(-277.03 -158.59)"/><path d="M495.87,192.27c-.07-1.53-.15-3.07-.25-5.25,1.86.26,3.44.45,5,.77a1.89,1.89,0,0,1,.06,1.48c-1.22,1.31-2.58,2.49-3.9,3.71Z" transform="translate(-277.03 -158.59)"/><path d="M487.51,319.78c-.13,2.89-.2,4.42-.26,5.91-1.83.3-5.73-2.5-5-3.33C483.21,321.21,485.14,320.86,487.51,319.78Z" transform="translate(-277.03 -158.59)"/><path class="cls-1" d="M470,301.22c1.6,4.52-2.38,5.64-4.19,7.74-1.64,1.89-4.54,2.64-6.31,4.45-2.49,2.56-3.83,1.26-6.05-.39-2.86-2.13-6.23-5.3-10-3.41s-7.67,3.28-10.83,6.52c-2.34,2.39-2.35,4.73-2.59,7.4a6.16,6.16,0,0,1-5.77,5.39c-7.84,0-15.68.05-23.51-.13-1.39,0-2.77-1-4.13-1.62-.4-.17-.79-.77-1.07-.7-4.56,1-8.05-2.17-12.1-3.09-2.34-.53-4.48-2-6.65-3.16a1.55,1.55,0,0,1-.5-1.41,2.19,2.19,0,0,1,1.44-1.12c2.27-.16,4.54-.17,6.82-.18,9.65,0,19.31,0,29,0,5.18,0,5.84-.49,5.9-3.87.06-3.71-.7-4.3-5.75-4.3-15.68,0-31.37.07-47,0-2.75,0-6.18,1.27-7.76-2.69-.16-.42-1.38-.42-2.16-.63-.09-1.6-.17-3-.27-5,7.74,0,15.09,0,22.44,0,4,0,8,.09,11.93-.07a26.48,26.48,0,0,0,4.69-1c-1-4.63-3.67-5.25-7.49-5.16-11.47.26-23,.1-34.43.11h-4.07c-2.2-3.39-4.14-6.23-5.9-9.16a29.51,29.51,0,0,1-1.24-3.46c-.67-1.51-1.51-2.95-2.21-4.46a7.28,7.28,0,0,1-.57-1.84c-.48-2.58.77-5.62-2.39-7.52-.6-.36-.24-2.34-.36-4.22h13.95c.1-2.27.18-3.91.28-6.11H336.71c0-3.56,0-6.59,0-9.62,0-2.55,2.13-2,3.54-2,7.38-.08,14.78-.3,22.15.14,3.29.19,5.4-1.42,7.72-2.94a2.82,2.82,0,0,0,.3-2.3c-1.94-1-2.86-3.32-5.8-3.17-7.48.39-15,.15-22.5.13a13,13,0,0,1-3.7-.34c-.53-.16-1.27-1.41-1.09-1.79.86-1.88,2-3.64,3.49-6.21h4.05q25.56,0,51.14,0c1.67,0,3.42.3,3.64-2.35s-.36-3.84-3.4-3.82c-16.6.12-33.19,0-49.78,0H342c.85-2.11,1.47-3.69,2.13-5.24a11.73,11.73,0,0,1,.91-1.67q2.37-3.69,4.79-7.35c.29-.44.88-.8.94-1.25.49-3.32,2.71-5.18,5.21-7.09,2.27-1.74,4.69-3.75,5.95-6.21,1.34-2.61,3.22-2.15,5.09-2.16,10.34-.09,20.68,0,31-.05,1.93,0,4.09.47,5.73-.24,1.47-.63,2.36-2.59,4.1-4.67a38.65,38.65,0,0,0-5.52-.9c-7.5-.1-15,0-22.5-.1a14.54,14.54,0,0,1-3.11-.71c.68-.67,1.66-1.22,2-2,1.14-2.85,3.78-2.23,5.91-2.95,4.22-1.43,8.29-3.27,12.47-4.81a11.14,11.14,0,0,1,3.7-.49c8.41,0,16.81-.15,25.22,0,1.58,0,3.09,1.38,4.72,1.8,2.5.64,5.06,1,7.77,1.52a17.54,17.54,0,0,1,.3,2.24c.08,5-.36,5.43-5.24,5.45-3.41,0-6.83-.12-10.23.1-1.28.08-2.51.94-3.77,1.45,1.35,1.42,2.52,3.82,4.06,4.09a37.54,37.54,0,0,0,11.2.12,6.17,6.17,0,0,1,6.45,3.52c2.06,4.68,6.72,6.58,9.46,10.37.19.27.85.26,1.29.27,5.56,0,11.12.06,16.68,0,.61,0,1.17-.79,1.82-1a11.67,11.67,0,0,1,3.69-1.21c.47,0,1,1.36,1.52,2.14,1.3,2.1,2.58,4.22,3.88,6.32.05.08.26.07.3.14,1.59,3.23,3.17,6.47,5.22,10.66h-6.29q-29.66,0-59.32,0c-1.82,0-3.95-.63-3.93,2.62,0,3,1.34,3.55,3.95,3.54,20.46-.07,40.91,0,61.37,0,3.2,0,5.37-.46,7.16,4.32,3,7.94.93,15.52,2.12,23.65H486c-10.34,0-20.68-.05-31,0-1.59,0-3.89-.68-4.21,2.15-.23,1.92.16,3.4,2.42,3.65a31.87,31.87,0,0,0,3.37.27c9.66,0,19.32,0,29,.08,1.32,0,3.34.43,3.74,1.28s-.61,2.56-1.05,3.87c-.11.31-.58.58-.54.81.84,4.77-2.3,8.46-3.64,12.57-1.08,3.3-2,7-4.93,9.56-.57.5-.66,1.57-1.05,2.61H444.65c-10.68,0-21.37-.06-32,.09-1.57,0-3.88.65-4.53,1.77-1.34,2.31,0,4,3.25,4.17,5.33.22,10.68.15,16,.16,13,0,25.91,0,38.86,0C467.52,301.05,468.84,301.16,470,301.22Zm-11.92-22.05c-.47-.33-1.55-.7-1.65-1.24-.58-3.31-3.06-2.66-5.22-2.67-6.12,0-12.25,0-18.38,0-13.74,0-27.47.16-41.2-.15-3.24-.07-4,2.68-6.12,3.64a1.81,1.81,0,0,0,.15,1.5c2.06,1.44,3.51,3.42,6.74,3.37,17.92-.29,35.86-.16,53.79-.19C450.52,283.4,455.3,284.73,458.07,279.17Zm-89.91-21c-.65,5.89-.65,5.93,4.48,5.93q27.39,0,54.77,0a6.69,6.69,0,0,0,3.29-.46,4.51,4.51,0,0,0,2.12-2.77c.41-3.88-2.78-2.83-4.71-2.84-18.7-.1-37.41-.06-56.12,0C370.77,258,369.54,258.09,368.16,258.16Zm20.34-49.85c2,4.35,5.95,4.1,9.9,4,6.36-.09,12.73-.22,19.08.06,4,.18,7.31-.66,9.4-3.9-1.65-4.52-5.27-4.42-9.09-4.32-6.35.17-12.72,0-19.08.07C394.78,204.28,390.37,203.1,388.5,208.31ZM391.19,243c1.78,1,3.74,3.12,5.78,3.21q13.59.56,27.2,0c1.95-.07,3.86-2,5.73-3.22.21-.13.15-1.2,0-1.24-2.22-.65-2.43-3.82-5.69-3.63-7.46.45-15,.13-22.45.15C397.76,238.36,393.27,237.23,391.19,243Z" transform="translate(-277.03 -158.59)"/><path class="cls-2" d="M461,201.18c-7,.6-10.33-3.35-13.87-7.9-2.78-3.57-3.32-7.74-1.6-10.57,1.46-2.38,1.48-5.58,4.61-7.64a31.74,31.74,0,0,1,10.13-4.64c1.14-.28,2.66,1,4,1.56.49.22.95.66,1.44.69,4.41.24,6,3.09,7.79,6.75a19.24,19.24,0,0,1,2.36,7.75c.33,5.19-3.32,8-6.38,10.88C467.19,200.22,464.34,202.84,461,201.18Z" transform="translate(-277.03 -158.59)"/><path class="cls-2" d="M436.31,325.85c0-6.21,2.15-8.14,8.93-8.14,5.91,0,8.09,2.31,8.07,8.53,0,6.44-2.06,8.45-8.5,8.4C438.16,334.58,436.27,332.63,436.31,325.85Z" transform="translate(-277.03 -158.59)"/><path class="cls-3" d="M339.45,383.62c0-3,2.77-6.11,5.44-6.1,2.49,0,5.87,3.49,5.88,6.06,0,2.37-3.39,5.32-6.12,5.33C340.07,388.91,339.45,388.27,339.45,383.62Z" transform="translate(-277.03 -158.59)"/><path class="cls-3" d="M407.45,377.21a4.47,4.47,0,0,1,.77,0l4.69,1.07c-.31.61-.46,1.44-1,1.78-2,1.4-3.69,4.17-6.71,1.84a9.21,9.21,0,0,1-1.72-1.57,3.61,3.61,0,0,1-.9-1.89c0-.26,1-.73,1.57-.85C405.41,377.36,406.65,377.3,407.45,377.21Z" transform="translate(-277.03 -158.59)"/><path class="cls-3" d="M488.57,377.56c5,4,4.79,8,.63,10.95-1.7,1.19-5.65,1-7.35-.19s-4.27-3.76-2.77-7C480.64,378,483.2,377.07,488.57,377.56Z" transform="translate(-277.03 -158.59)"/><path class="cls-3" d="M335.76,176l-1.66-1.8c.7-.47,1.45-1.36,2.09-1.29a10,10,0,0,1,3,1.35Z" transform="translate(-277.03 -158.59)"/><path d="M458.07,279.17c-2.77,5.56-7.55,4.23-11.89,4.24-17.93,0-35.87-.1-53.79.19-3.23,0-4.68-1.93-6.74-3.37a1.81,1.81,0,0,1-.15-1.5c2.16-1,2.88-3.71,6.12-3.64,13.73.31,27.46.14,41.2.15,6.13,0,12.26,0,18.38,0,2.16,0,4.64-.64,5.22,2.67C456.52,278.47,457.6,278.84,458.07,279.17Z" transform="translate(-277.03 -158.59)"/><path d="M368.16,258.16c1.38-.07,2.61-.19,3.83-.19,18.71,0,37.42-.05,56.12,0,1.93,0,5.12-1,4.71,2.84a4.51,4.51,0,0,1-2.12,2.77,6.69,6.69,0,0,1-3.29.46q-27.39,0-54.77,0C367.51,264.09,367.51,264.05,368.16,258.16Z" transform="translate(-277.03 -158.59)"/><path d="M388.5,208.31c1.87-5.21,6.28-4,10.21-4.05,6.36,0,12.73.1,19.08-.07,3.82-.1,7.44-.2,9.09,4.32-2.09,3.24-5.36,4.08-9.4,3.9-6.35-.28-12.72-.15-19.08-.06C394.45,212.41,390.54,212.66,388.5,208.31Z" transform="translate(-277.03 -158.59)"/><path d="M391.19,243c2.08-5.81,6.57-4.68,10.61-4.69,7.49,0,15,.3,22.45-.15,3.26-.19,3.47,3,5.69,3.63.11,0,.17,1.11,0,1.24-1.87,1.18-3.78,3.15-5.73,3.22q-13.59.5-27.2,0C394.93,246.16,393,244.08,391.19,243Z" transform="translate(-277.03 -158.59)"/></svg>